<?xml version="1.0" encoding="UTF-8"?>
<svg version="1.1" xmlns="http://www.w3.org/2000/svg" width="720" height="394">
<path d="M0 0 C237.6 0 475.2 0 720 0 C720 130.02 720 260.04 720 394 C482.4 394 244.8 394 0 394 C0 263.98 0 133.96 0 0 Z " fill="#F6F6F6" transform="translate(0,0)"/>
<path d="M0 0 C1.25159912 0.00523682 2.50319824 0.01047363 3.79272461 0.01586914 C4.78942421 0.01799156 4.78942421 0.01799156 5.80625916 0.02015686 C7.93590735 0.02577021 10.06545175 0.03832485 12.19506836 0.05102539 C13.63582205 0.05603868 15.07657739 0.06060188 16.51733398 0.06469727 C20.05577938 0.07574394 23.59416375 0.09301747 27.13256836 0.11352539 C29.12030522 9.7114548 30.90068554 19.31509965 32.44018555 28.99536133 C32.76088369 31.00934565 33.08706883 33.02238989 33.41381836 35.03540039 C34.48574881 41.71842359 35.46637324 48.37755248 36.13256836 55.11352539 C36.23802979 54.47552002 36.34349121 53.83751465 36.45214844 53.18017578 C38.29000481 42.074258 40.13097961 30.97046652 42.12353516 19.89111328 C43.09831717 14.42896103 43.9277772 8.95099257 44.70288086 3.45727539 C45.13256836 1.11352539 45.13256836 1.11352539 46.13256836 0.11352539 C48.351121 0.02568997 50.57245332 0.0065793 52.79272461 0.01586914 C53.78942421 0.01799156 53.78942421 0.01799156 54.80625916 0.02015686 C56.93590735 0.02577021 59.06545175 0.03832485 61.19506836 0.05102539 C62.63582205 0.05603868 64.07657739 0.06060188 65.51733398 0.06469727 C69.05577938 0.07574394 72.59416375 0.09301747 76.13256836 0.11352539 C76.42499223 6.77621751 76.70869345 13.43924505 76.98706055 20.10253906 C77.08218055 22.35685117 77.17910959 24.61108786 77.27807617 26.86523438 C77.98295051 42.95866633 78.25744768 59.00496035 78.13256836 75.11352539 C71.86256836 75.11352539 65.59256836 75.11352539 59.13256836 75.11352539 C58.80256836 53.99352539 58.47256836 32.87352539 58.13256836 11.11352539 C56.81256836 18.70352539 55.49256836 26.29352539 54.13256836 34.11352539 C51.57080692 47.80293809 48.88270599 61.46105645 46.13256836 75.11352539 C39.86256836 75.11352539 33.59256836 75.11352539 27.13256836 75.11352539 C26.86444336 73.71102539 26.59631836 72.30852539 26.32006836 70.86352539 C25.57740401 67.10836338 24.69490105 63.43264407 23.69506836 59.73852539 C22.14354228 53.67205844 21.21959309 47.57401088 20.3984375 41.3737793 C19.08287984 31.82930455 17.03666152 22.63399119 15.13256836 13.11352539 C14.80256836 33.57352539 14.47256836 54.03352539 14.13256836 75.11352539 C7.86256836 75.11352539 1.59256836 75.11352539 -4.86743164 75.11352539 C-4.97258606 59.2352078 -4.79703248 43.37487874 -4.49411011 27.4994812 C-4.45120936 25.23610469 -4.40997881 22.97269593 -4.37039185 20.70925903 C-4.31330323 17.48972536 -4.24956748 14.27039285 -4.18383789 11.05102539 C-4.16712036 10.0635582 -4.15040283 9.076091 -4.13317871 8.05870056 C-4.11323853 7.15769119 -4.09329834 6.25668182 -4.07275391 5.32836914 C-4.05720963 4.53551514 -4.04166534 3.74266113 -4.02565002 2.92578125 C-3.75819028 -0.1377407 -3.11872098 0.12347427 0 0 Z " fill="#182DA2" transform="translate(246.867431640625,158.886474609375)"/>
<path d="M0 0 C9.24 0 18.48 0 28 0 C35.58372145 25.8738732 35.58372145 25.8738732 38.31323242 36.11279297 C39.4291444 40.22425765 40.75924809 44.17765268 42.32519531 48.140625 C43.01818523 50.05010808 43.50732658 52.02930632 44 54 C44 36.18 44 18.36 44 0 C50.27 0 56.54 0 63 0 C63 24.42 63 48.84 63 74 C54.09 74 45.18 74 36 74 C32.22390802 62.94144491 28.73635948 51.87367643 25.58984375 40.62109375 C23.45236131 33.06375411 21.21607858 25.53466717 19 18 C18.67 36.48 18.34 54.96 18 74 C12.06 74 6.12 74 0 74 C0 49.58 0 25.16 0 0 Z " fill="#182CA2" transform="translate(486,159)"/>
<path d="M0 0 C3.84479349 3.21889687 5.45741464 6.78982928 7.6875 11.25 C7.82427734 14.58736713 7.73033944 17.9085233 7.6875 21.25 C1.4175 21.25 -4.8525 21.25 -11.3125 21.25 C-11.76822917 18.67838542 -12.22395833 16.10677083 -12.6796875 13.53515625 C-12.88851562 12.78105469 -13.09734375 12.02695313 -13.3125 11.25 C-15.54140995 10.13554502 -16.84305106 10.08519714 -19.3125 10.0625 C-20.01375 10.04832031 -20.715 10.03414062 -21.4375 10.01953125 C-23.55774938 10.08487677 -23.55774938 10.08487677 -25.3125 12.25 C-25.61063076 14.20761573 -25.61063076 14.20761573 -25.55541992 16.46850586 C-25.55849655 17.33958481 -25.56157318 18.21066376 -25.56474304 19.10813904 C-25.55755753 20.05085159 -25.55037201 20.99356415 -25.54296875 21.96484375 C-25.54251053 22.93152481 -25.54205231 23.89820587 -25.5415802 24.8941803 C-25.53855567 26.94110336 -25.53066343 28.98802408 -25.51831055 31.03491211 C-25.500095 34.17114405 -25.49780056 37.30708015 -25.49804688 40.44335938 C-25.49313014 42.42969006 -25.48730114 44.41601873 -25.48046875 46.40234375 C-25.47935593 47.34303207 -25.4782431 48.2837204 -25.47709656 49.25291443 C-25.47071671 50.12714554 -25.46433685 51.00137665 -25.45776367 51.90209961 C-25.45395187 52.67106064 -25.45014008 53.44002167 -25.44621277 54.23228455 C-25.3842256 56.45616419 -25.3842256 56.45616419 -24.3125 59.25 C-23.054375 59.270625 -21.79625 59.29125 -20.5 59.3125 C-19.79230469 59.32410156 -19.08460938 59.33570313 -18.35546875 59.34765625 C-16.10944539 59.33263217 -16.10944539 59.33263217 -13.3125 58.25 C-11.79143366 55.20786733 -11.93820662 51.96952428 -11.75 48.625 C-11.68522461 47.56539062 -11.68522461 47.56539062 -11.61914062 46.484375 C-11.51305249 44.73981463 -11.41227111 42.99493303 -11.3125 41.25 C-13.6225 41.25 -15.9325 41.25 -18.3125 41.25 C-18.3125 37.62 -18.3125 33.99 -18.3125 30.25 C-9.7325 30.25 -1.1525 30.25 7.6875 30.25 C7.749375 34.189375 7.81125 38.12875 7.875 42.1875 C7.91596802 44.02235962 7.91596802 44.02235962 7.95776367 45.89428711 C8.01151388 53.01532224 7.93298527 60.39109808 3.13745117 66.09301758 C-3.10144465 72.16170016 -10.23203457 73.42165879 -18.6875 73.6875 C-26.24484613 73.50557793 -33.2341158 72.57190972 -39.25 67.671875 C-45.19032501 61.33172042 -45.62671724 54.03738528 -45.6484375 45.73046875 C-45.6550943 44.83185623 -45.6617511 43.93324371 -45.66860962 43.00740051 C-45.67869196 41.11392245 -45.68342801 39.22040917 -45.68310547 37.3269043 C-45.68747147 34.45626169 -45.72381795 31.58716739 -45.76171875 28.71679688 C-45.89175022 7.97254073 -45.89175022 7.97254073 -39.46337891 1.34301758 C-28.54303339 -8.11983163 -11.9479734 -6.31213689 0 0 Z " fill="#172CA4" transform="translate(613.3125,161.75)"/>
<path d="M0 0 C6.27 0 12.54 0 19 0 C19.01401855 2.64950684 19.01401855 2.64950684 19.02832031 5.35253906 C19.06385816 11.1921216 19.11766275 17.03138262 19.18390274 22.87068558 C19.22339255 26.41071665 19.25557317 29.95049844 19.27099609 33.49072266 C19.28905371 37.56192943 19.33899725 41.63220454 19.390625 45.703125 C19.39185364 46.97303284 19.39308228 48.24294067 19.39434814 49.55133057 C19.41406677 50.73225281 19.4337854 51.91317505 19.45410156 53.12988281 C19.46298401 54.16912903 19.47186646 55.20837524 19.48101807 56.27911377 C20.13581935 59.71206523 21.22098933 60.92995773 24 63 C27.63239813 63.1716367 27.63239813 63.1716367 31 62 C33.20612531 58.84855393 33.26962945 55.99507564 33.31884766 52.22167969 C33.33871735 51.0607782 33.35858704 49.89987671 33.37905884 48.70379639 C33.39638565 46.8317453 33.39638565 46.8317453 33.4140625 44.921875 C33.43342865 43.64016418 33.4527948 42.35845337 33.4727478 41.03790283 C33.52400627 37.63825635 33.56366529 34.23857035 33.60089111 30.83874512 C33.64097041 27.36635613 33.69204478 23.89413067 33.7421875 20.421875 C33.83887223 13.61469626 33.92228394 6.80742146 34 0 C39.94 0 45.88 0 52 0 C52.06793397 7.96290611 52.12290675 15.92558471 52.15543652 23.88870335 C52.17105375 27.58680094 52.19221911 31.28468899 52.22631836 34.98266602 C52.25905369 38.55532309 52.27688264 42.12777933 52.28463173 45.70057487 C52.29014995 47.05966284 52.30092554 48.41874054 52.31719017 49.77774239 C52.49687437 65.42180297 52.49687437 65.42180297 46.3125 71.75 C40.13561487 76.3784124 33.57258038 77.53918232 26.0625 77.4375 C25.27198242 77.42920166 24.48146484 77.42090332 23.66699219 77.41235352 C15.72523476 77.18209827 10.12857301 75.55765776 4.5625 69.6875 C-1.24019584 62.85982654 -0.26439197 53.80486225 -0.1953125 45.41015625 C-0.1924826 44.11049423 -0.18965271 42.81083221 -0.18673706 41.4717865 C-0.17914655 38.03750745 -0.15953823 34.60340093 -0.1373291 31.16918945 C-0.11677121 27.65643649 -0.1077142 24.14365531 -0.09765625 20.63085938 C-0.07628734 13.75382877 -0.04114328 6.87694046 0 0 Z " fill="#182BA1" transform="translate(413,159)"/>
<path d="M0 0 C3.62312405 2.94378829 5.88617222 5.44343183 7 10 C7.14959354 13.3529587 7.08960598 16.63977566 7 20 C0.73 20 -5.54 20 -12 20 C-12.495 16.04 -12.495 16.04 -13 12 C-14.93731528 9.63589512 -14.93731528 9.63589512 -18.4375 9.6875 C-21.86150104 9.74120944 -21.86150104 9.74120944 -24 11.125 C-25.51460008 13.96487516 -24.76139974 15.95440106 -24 19 C-23.67 19.99 -23.34 20.98 -23 22 C-21.35436174 22.71700554 -19.68048918 23.36898627 -18 24 C-15.13690358 25.51774186 -12.35319175 27.16621008 -9.5625 28.8125 C-8.82451172 29.23853516 -8.08652344 29.66457031 -7.32617188 30.10351562 C-0.05105762 34.37804943 6.49605432 38.53694339 9 47 C10.0776471 54.30181444 9.28286803 60.43122737 5.61328125 66.87109375 C1.85697564 71.82796193 -3.54749961 74.47443668 -9.6015625 75.71875 C-20.08065022 76.9475681 -27.90084393 76.22896498 -37.1875 71.3125 C-40.87652814 68.27929909 -43.36584794 65.5345951 -45 61 C-45.40069692 56.5720454 -45.23242083 52.46247991 -45 48 C-38.4 48 -31.8 48 -25 48 C-24.8046875 50.79947917 -24.609375 53.59895833 -24.4140625 56.3984375 C-24.23636036 59.15508879 -24.23636036 59.15508879 -22 61 C-19.86181539 61.35609192 -19.86181539 61.35609192 -17.5 61.3125 C-16.30890625 61.33763672 -16.30890625 61.33763672 -15.09375 61.36328125 C-14.4028125 61.24339844 -13.711875 61.12351562 -13 61 C-10.65831236 57.48746854 -10.50376323 56.13530644 -11 52 C-14.23426015 46.71474561 -19.02684868 44.42606742 -24.3125 41.5625 C-42.14603746 31.8489726 -42.14603746 31.8489726 -45 23 C-46.03053346 15.90313038 -45.27844207 9.85120271 -41 4 C-30.99143384 -6.47408087 -12.15380045 -7.35436255 0 0 Z " fill="#192BA1" transform="translate(146,161)"/>
<path d="M0 0 C4.68139254 -0.02465288 9.36274759 -0.04283739 14.04418945 -0.05493164 C15.63794614 -0.05997157 17.23169819 -0.0668035 18.82543945 -0.07543945 C21.11150253 -0.08751999 23.39750467 -0.09323155 25.68359375 -0.09765625 C26.40026718 -0.10281754 27.11694061 -0.10797882 27.85533142 -0.11329651 C29.57063672 -0.11349263 31.28581266 -0.06192007 33 0 C35.49585549 2.49585549 35.52520489 7.96823244 36.1875 11.3125 C36.4038208 12.39595703 36.6201416 13.47941406 36.84301758 14.59570312 C39.12253567 26.24639369 41.04945036 37.95462794 42.9440918 49.6730957 C43.18501058 51.15712449 43.42629236 52.6410944 43.66796875 54.125 C43.83989998 55.18179207 43.83989998 55.18179207 44.01530457 56.25993347 C44.62977482 59.97315725 45.32431438 63.64648285 46.17578125 67.3125 C47 71 47 71 47 75 C40.4 75 33.8 75 27 75 C25.33797139 66.00993613 23.82897167 57.12322684 22.8425293 48.03613281 C21.37482855 34.96809415 19.17449157 21.96676729 17 9 C16.87471924 9.86238281 16.74943848 10.72476563 16.62036133 11.61328125 C13.54250353 32.76325921 10.33845924 53.88957263 7 75 C0.4 75 -6.2 75 -13 75 C-11.71299366 64.11229232 -10.12935193 53.35046292 -8.1875 42.5625 C-7.92493265 41.08740854 -7.66240061 39.61231079 -7.39990234 38.13720703 C-5.11852969 25.38762285 -2.62827223 12.68273647 0 0 Z " fill="#182DA4" transform="translate(180,159)"/>
<path d="M0 0 C3.289719 2.6854849 5.4220768 5.0795212 7 9 C7.25747923 12.68710253 7.08813884 16.29816872 7 20 C1.06 20 -4.88 20 -11 20 C-11.45572917 17.68880208 -11.91145833 15.37760417 -12.3671875 13.06640625 C-12.57601563 12.38449219 -12.78484375 11.70257813 -13 11 C-16.04300316 9.47849842 -18.654085 9.76100607 -22 10 C-24.18038095 13.27057143 -24.63246755 14.20519469 -24 18 C-20.27141328 22.36430361 -16.17165196 24.80561611 -11.1875 27.4375 C5.20559782 36.42139298 5.20559782 36.42139298 8.37890625 42.75390625 C10.30223935 49.70935615 10.19713459 58.67044945 7.171875 65.3203125 C3.19800035 71.01619949 -2.39844742 73.50671124 -9 75 C-18.10081679 75.98199993 -28.0883102 76.48222621 -36.11328125 71.56640625 C-39.99209986 68.34610343 -42.39369506 64.81891483 -44 60 C-44.13399703 55.99616868 -44.04308887 52.0072645 -44 48 C-37.4 48 -30.8 48 -24 48 C-23.83723958 50.79947917 -23.67447917 53.59895833 -23.51171875 56.3984375 C-23.34285156 57.25695312 -23.17398437 58.11546875 -23 59 C-19.32653229 61.44897847 -17.33643601 61.31537716 -13 61 C-10.47206088 58.47206088 -10.64886578 56.62785835 -10.44140625 53.16796875 C-11.66883867 48.40415762 -15.94431268 45.91859061 -19.9609375 43.53515625 C-21.42787535 42.70310279 -22.89935271 41.87900763 -24.375 41.0625 C-41.17577431 31.75677076 -41.17577431 31.75677076 -44 23 C-45.03053346 15.90313038 -44.27844207 9.85120271 -40 4 C-29.72809752 -6.74966539 -12.60421801 -6.66901261 0 0 Z " fill="#192DA3" transform="translate(387,161)"/>
<path d="M0 0 C1.70703125 1.1640625 1.70703125 1.1640625 3 3 C3.29296875 5.69921875 3.29296875 5.69921875 3.1875 8.6875 C3.16042969 9.68136719 3.13335937 10.67523438 3.10546875 11.69921875 C3.07066406 12.45847656 3.03585938 13.21773437 3 14 C3.66 14.33 4.32 14.66 5 15 C5 15.66 5 16.32 5 17 C6.9600281 18.63676257 6.9600281 18.63676257 9 20 C7.41015625 20.7265625 7.41015625 20.7265625 5 21 C2.64174692 19.88711652 0.61395417 18.7704768 -1.5625 17.375 C-2.13935547 17.03082031 -2.71621094 16.68664062 -3.31054688 16.33203125 C-6.97066759 14.0439281 -9.22528519 11.95017167 -11 8 C-10.875 4.8125 -10.875 4.8125 -10 2 C-6.30513897 -0.46324069 -4.36706908 -0.38991688 0 0 Z " fill="#F3F1EF" transform="translate(131,170)"/>
<path d="M0 0 C9.24 0 18.48 0 28 0 C28.845625 2.59875 29.69125 5.1975 30.5625 7.875 C30.83263916 8.69210449 31.10277832 9.50920898 31.38110352 10.35107422 C33.11111111 15.77777778 33.11111111 15.77777778 32 18 C31.34 17.67 30.68 17.34 30 17 C29.18359375 14.41796875 29.18359375 14.41796875 28.4375 11.1875 C28.18871094 10.12917969 27.93992187 9.07085937 27.68359375 7.98046875 C27.45800781 6.99691406 27.23242188 6.01335937 27 5 C26.67 3.68 26.34 2.36 26 1 C17.75 1 9.5 1 1 1 C1 24.76 1 48.52 1 73 C0.67 73 0.34 73 0 73 C0 48.91 0 24.82 0 0 Z " fill="#3C4FCD" transform="translate(486,159)"/>
<path d="M0 0 C0.33 0 0.66 0 1 0 C1 13.53 1 27.06 1 41 C0.67 41 0.34 41 0 41 C-0.33 37.04 -0.66 33.08 -1 29 C-2.32 29.33 -3.64 29.66 -5 30 C-3.66193488 19.92515677 -1.94274694 9.97276765 0 0 Z " fill="#DFE0E5" transform="translate(305,166)"/>
<path d="M0 0 C0.33 0 0.66 0 1 0 C1.66 5.94 2.32 11.88 3 18 C2.34 18 1.68 18 1 18 C1 20.64 1 23.28 1 26 C0.34 25.67 -0.32 25.34 -1 25 C-1.66 25.99 -2.32 26.98 -3 28 C-4.09889122 21.66306064 -3.73596675 16.37259622 -2.625 10.0625 C-2.48578125 9.20076172 -2.3465625 8.33902344 -2.203125 7.45117188 C-1.1505366 1.1505366 -1.1505366 1.1505366 0 0 Z " fill="#E6E7EB" transform="translate(197,167)"/>
<path d="M0 0 C9.9 0 19.8 0 30 0 C32 10 32 10 32 15 C31.01 15 30.02 15 29 15 C28 12 28 12 28 1 C18.76 1 9.52 1 0 1 C0 0.67 0 0.34 0 0 Z " fill="#3C4DA1" transform="translate(244,159)"/>
<path d="M0 0 C9.24 0 18.48 0 28 0 C28.845625 2.59875 29.69125 5.1975 30.5625 7.875 C30.83263916 8.69210449 31.10277832 9.50920898 31.38110352 10.35107422 C33.11111111 15.77777778 33.11111111 15.77777778 32 18 C31.34 17.67 30.68 17.34 30 17 C29.18359375 14.41796875 29.18359375 14.41796875 28.4375 11.1875 C28.18871094 10.12917969 27.93992187 9.07085937 27.68359375 7.98046875 C27.45800781 6.99691406 27.23242188 6.01335937 27 5 C26.67 3.68 26.34 2.36 26 1 C17.42 1 8.84 1 0 1 C0 0.67 0 0.34 0 0 Z " fill="#4A5B9F" transform="translate(486,159)"/>
<path d="M0 0 C6.6 0 13.2 0 20 0 C20 0.33 20 0.66 20 1 C14.06 1 8.12 1 2 1 C2 1.99 2 2.98 2 4 C2.66 4.33 3.32 4.66 4 5 C3.67 7.64 3.34 10.28 3 13 C2.01 13 1.02 13 0 13 C0 8.71 0 4.42 0 0 Z " fill="#4C55A1" transform="translate(101,209)"/>
<path d="M0 0 C5.61 0 11.22 0 17 0 C17 0.99 17 1.98 17 3 C11.39 3 5.78 3 0 3 C0 2.01 0 1.02 0 0 Z " fill="#0F259F" transform="translate(103,210)"/>
<path d="M0 0 C1.03382813 -0.01417969 2.06765625 -0.02835938 3.1328125 -0.04296875 C5.875 0.1875 5.875 0.1875 8.875 2.1875 C5.16775943 3.35183435 1.61735879 3.35481546 -2.25 3.375 C-3.49007812 3.38917969 -4.73015625 3.40335938 -6.0078125 3.41796875 C-9.125 3.1875 -9.125 3.1875 -11.125 1.1875 C-7.36986603 0.32146357 -3.85163242 0.02413304 0 0 Z " fill="#3641AF" transform="translate(595.125,156.8125)"/>
<path d="M0 0 C0.33 0 0.66 0 1 0 C1.22211116 1.93596892 1.42722992 3.87389328 1.625 5.8125 C1.74101563 6.89144531 1.85703125 7.97039062 1.9765625 9.08203125 C2 12 2 12 0 15 C-2.1640625 15.51171875 -2.1640625 15.51171875 -4.625 15.6875 C-5.44226563 15.75324219 -6.25953125 15.81898438 -7.1015625 15.88671875 C-7.72804688 15.92410156 -8.35453125 15.96148437 -9 16 C-9 14.66666667 -9 13.33333333 -9 12 C-6.03 12 -3.06 12 0 12 C0 8.04 0 4.08 0 0 Z " fill="#E5E1E5" transform="translate(600,206)"/>
<path d="M0 0 C3.2645028 3.2645028 3.93236055 7.41047299 4.125 11.9375 C4.08375 12.618125 4.0425 13.29875 4 14 C3.34 14 2.68 14 2 14 C1.34 14.66 0.68 15.32 0 16 C0 10.72 0 5.44 0 0 Z " fill="#EBE9EA" transform="translate(504,175)"/>
<path d="M0 0 C0.33 0 0.66 0 1 0 C1.66 5.94 2.32 11.88 3 18 C-1.26339574 11.60490639 -1.26339574 11.60490639 -1.1875 6.375 C-1.18105469 5.39273438 -1.17460937 4.41046875 -1.16796875 3.3984375 C-1 1 -1 1 0 0 Z " fill="#D7DDE7" transform="translate(197,167)"/>
<path d="M0 0 C1.23556641 0.01740234 1.23556641 0.01740234 2.49609375 0.03515625 C3.32238281 0.04417969 4.14867187 0.05320313 5 0.0625 C5.63808594 0.07410156 6.27617188 0.08570313 6.93359375 0.09765625 C6.93359375 0.75765625 6.93359375 1.41765625 6.93359375 2.09765625 C9.90359375 2.09765625 12.87359375 2.09765625 15.93359375 2.09765625 C15.93359375 2.42765625 15.93359375 2.75765625 15.93359375 3.09765625 C13.51662503 3.15176749 11.10087588 3.19137903 8.68359375 3.22265625 C8.00167969 3.23941406 7.31976562 3.25617188 6.6171875 3.2734375 C2.87277025 3.30979107 0.11006648 3.17709974 -3.06640625 1.09765625 C-2.06640625 0.09765625 -2.06640625 0.09765625 0 0 Z " fill="#26379C" transform="translate(586.06640625,231.90234375)"/>
<path d="M0 0 C0.33 0 0.66 0 1 0 C0.9131197 2.9389507 0.80626233 5.87481289 0.6875 8.8125 C0.66494141 9.64587891 0.64238281 10.47925781 0.61914062 11.33789062 C0.5659668 12.54155273 0.5659668 12.54155273 0.51171875 13.76953125 C0.48553467 14.50792236 0.45935059 15.24631348 0.43237305 16.00708008 C-0.10232963 18.47166391 -1.09965347 19.40052324 -3 21 C-2.48462048 13.86606248 -1.55994099 6.98187183 0 0 Z " fill="#3C49A0" transform="translate(177,174)"/>
<path d="M0 0 C0.66 0.66 1.32 1.32 2 2 C1.9765625 5.0390625 1.9765625 5.0390625 1.625 8.625 C1.51414062 9.81351563 1.40328125 11.00203125 1.2890625 12.2265625 C1.19367188 13.14179688 1.09828125 14.05703125 1 15 C0.34 14.67 -0.32 14.34 -1 14 C-1.02705729 12.22925083 -1.04642195 10.45838289 -1.0625 8.6875 C-1.07410156 7.70136719 -1.08570312 6.71523437 -1.09765625 5.69921875 C-1 3 -1 3 0 0 Z " fill="#434CAE" transform="translate(102,170)"/>
<path d="M0 0 C0.598125 0.20625 1.19625 0.4125 1.8125 0.625 C1.8125 1.285 1.8125 1.945 1.8125 2.625 C0.1625 2.625 -1.4875 2.625 -3.1875 2.625 C-3.5175 4.935 -3.8475 7.245 -4.1875 9.625 C-4.8475 8.965 -5.5075 8.305 -6.1875 7.625 C-6 4.625 -6 4.625 -5.1875 1.625 C-2.1875 -0.375 -2.1875 -0.375 0 0 Z " fill="#DDE3E6" transform="translate(126.1875,170.375)"/>
<path d="M0 0 C0.82638376 2.89234315 1 4.88742431 1 8 C-0.98 8.66 -2.96 9.32 -5 10 C-4.38545304 6.00544473 -2.29353263 3.25533664 0 0 Z " fill="#E6EBE9" transform="translate(619,222)"/>
<path d="M0 0 C3 3 3 3 3.4375 6 C3 9 3 9 -1 12 C-0.67 8.04 -0.34 4.08 0 0 Z " fill="#2D3EA9" transform="translate(292,160)"/>
<path d="M0 0 C3.62632404 5.43948606 4.27607312 8.49202707 3 15 C2.67 15 2.34 15 2 15 C1.66223316 13.2508503 1.32996329 11.50063855 1 9.75 C0.814375 8.77546875 0.62875 7.8009375 0.4375 6.796875 C0 4 0 4 0 0 Z " fill="#3342AD" transform="translate(204,213)"/>
<path d="M0 0 C2 3 2 3 2 5 C1.01 5.33 0.02 5.66 -1 6 C-1.33 6.99 -1.66 7.98 -2 9 C-2.99 9.33 -3.98 9.66 -5 10 C-3.84414715 6.08788267 -2.64465038 3.1254959 0 0 Z " fill="#2A3AA0" transform="translate(574,163)"/>
<path d="M0 0 C0 2.31 0 4.62 0 7 C-1.32 7.33 -2.64 7.66 -4 8 C-3.74438677 5.6568787 -3.40729228 3.32156597 -3 1 C-1 0 -1 0 0 0 Z " fill="#DFE0ED" transform="translate(296,227)"/>
<path d="M0 0 C7.57142857 1.85714286 7.57142857 1.85714286 10 5 C5.75354935 5 3.61475228 3.18249194 0 1 C0 0.67 0 0.34 0 0 Z " fill="#3141A2" transform="translate(121,201)"/>
<path d="M0 0 C0.99 0 1.98 0 3 0 C2.67 2.97 2.34 5.94 2 9 C-0.29013653 5.5647952 -0.17842973 4.014669 0 0 Z " fill="#E6E5E9" transform="translate(288,170)"/>
<path d="M0 0 C0.33 0.66 0.66 1.32 1 2 C3.52733235 2.65555119 3.52733235 2.65555119 6 3 C4.02 3.99 4.02 3.99 2 5 C0.35 3.68 -1.3 2.36 -3 1 C-2.01 0.67 -1.02 0.34 0 0 Z " fill="#DAD8ED" transform="translate(134,186)"/>
</svg>
