<?xml version="1.0" encoding="UTF-8"?>
<svg version="1.1" xmlns="http://www.w3.org/2000/svg" width="192" height="27">
<path d="M0 0 C3.96 0 7.92 0 12 0 C14.31 5.28 16.62 10.56 19 16 C19.763125 14.47375 20.52625 12.9475 21.3125 11.375 C24.15625 5.6875 24.15625 5.6875 27 0 C30.63 0 34.26 0 38 0 C38 8.91 38 17.82 38 27 C34.37 27 30.74 27 27 27 C26.505 20.565 26.505 20.565 26 14 C24.02 18.29 22.04 22.58 20 27 C17.36 27 14.72 27 12 27 C9.69 22.38 7.38 17.76 5 13 C4.67 17.62 4.34 22.24 4 27 C2.68 27 1.36 27 0 27 C0 18.09 0 9.18 0 0 Z " fill="#007C8A" transform="translate(66,0)"/>
<path d="M0 0 C3.63 0 7.26 0 11 0 C11.33 3.3 11.66 6.6 12 10 C12.78503906 9.278125 13.57007813 8.55625 14.37890625 7.8125 C15.43930394 6.87409497 16.50054724 5.93664487 17.5625 5 C18.07619141 4.52304688 18.58988281 4.04609375 19.11914062 3.5546875 C22.17616959 0.89640145 23.81523605 0.01479591 27.90234375 -0.3125 C28.92457031 -0.209375 29.94679688 -0.10625 31 0 C26.5 4.5 26.5 4.5 22 9 C23.46585492 13.34923988 25.8227647 16.67715 28.625 20.25 C33 25.88650307 33 25.88650307 33 27 C28.22238487 27.53673623 23.75663905 27.7936377 19 27 C15.82153695 24.44026445 13.89511459 21.59074343 12 18 C11.67 20.97 11.34 23.94 11 27 C7.37 27 3.74 27 0 27 C0 18.09 0 9.18 0 0 Z " fill="#007C8A" transform="translate(0,0)"/>
<path d="M0 0 C3.96 0 7.92 0 12 0 C12.33 7.26 12.66 14.52 13 22 C16.3 22 19.6 22 23 22 C23.33 14.74 23.66 7.48 24 0 C25.65 0 27.3 0 29 0 C29.0875127 3.22899426 29.14056146 6.45768116 29.1875 9.6875 C29.21263672 10.59951172 29.23777344 11.51152344 29.26367188 12.45117188 C29.35882136 21.17320802 29.35882136 21.17320802 26 25 C22.52060362 27.61151973 18.78946398 27.29993222 14.5625 27.3125 C13.26441406 27.32925781 11.96632813 27.34601562 10.62890625 27.36328125 C6.78976409 26.97895378 4.94784957 26.45564964 2 24 C-0.82495881 19.50882297 -0.22431438 14.30983039 -0.125 9.1875 C-0.11597656 8.30384766 -0.10695312 7.42019531 -0.09765625 6.50976562 C-0.07419637 4.33972641 -0.03832865 2.16982753 0 0 Z " fill="#007C8A" transform="translate(33,0)"/>
<path d="M0 0 C8.25 0 16.5 0 25 0 C25 1.32 25 2.64 25 4 C20.38 4 15.76 4 11 4 C11 6.31 11 8.62 11 11 C14.96 11 18.92 11 23 11 C23 12.65 23 14.3 23 16 C19.04 16 15.08 16 11 16 C11 18.31 11 20.62 11 23 C15.62 23 20.24 23 25 23 C25 24.32 25 25.64 25 27 C16.75 27 8.5 27 0 27 C0 18.09 0 9.18 0 0 Z " fill="#007B8A" transform="translate(137,0)"/>
<path d="M0 0 C3.96 0 7.92 0 12 0 C12 7.59 12 15.18 12 23 C16.62 23 21.24 23 26 23 C26 24.32 26 25.64 26 27 C17.42 27 8.84 27 0 27 C0 18.09 0 9.18 0 0 Z " fill="#007B8A" transform="translate(166,0)"/>
<path d="M0 0 C9.57 0 19.14 0 29 0 C29 1.32 29 2.64 29 4 C26.03 4 23.06 4 20 4 C20 11.59 20 19.18 20 27 C16.37 27 12.74 27 9 27 C9 19.41 9 11.82 9 4 C6.03 4 3.06 4 0 4 C0 2.68 0 1.36 0 0 Z " fill="#007B8A" transform="translate(106,0)"/>
<path d="M0 0 C2.5 0.125 2.5 0.125 3.5 1.125 C3.625 3.625 3.625 3.625 3.5 6.125 C2.5 7.125 2.5 7.125 0 7.25 C-2.5 7.125 -2.5 7.125 -3.5 6.125 C-3.625 3.625 -3.625 3.625 -3.5 1.125 C-2.5 0.125 -2.5 0.125 0 0 Z M1.5 2.125 C2.5 4.125 2.5 4.125 2.5 4.125 Z " fill="#007B88" transform="translate(188.5,-0.125)"/>
</svg>
