<?xml version="1.0" encoding="UTF-8"?>
<svg version="1.1" xmlns="http://www.w3.org/2000/svg" width="512" height="235">
<path d="M0 0 C20.53026083 19.17337577 32.40739814 46.42804765 33.65625 74.38671875 C34.46088035 105.02715451 24.25892365 133.64711725 3.08447266 156.0625 C-17.93090098 177.52685073 -45.71455443 189.17778421 -75.8125 189.5625 C-107.03115992 189.41645196 -134.65459166 176.87644135 -156.54223633 154.81884766 C-170.08769668 140.6269294 -179.33316642 122.33736515 -183.625 103.25 C-183.84929687 102.25355469 -184.07359375 101.25710937 -184.3046875 100.23046875 C-189.60963261 71.92531643 -183.24263567 41.94683978 -167.4609375 17.9609375 C-165.27261495 14.96842574 -162.99932344 12.09680586 -160.625 9.25 C-159.85414063 8.31542969 -159.08328125 7.38085938 -158.2890625 6.41796875 C-141.64569325 -12.83770927 -116.6530911 -26.56895688 -91.2421875 -29.5390625 C-55.67223431 -31.61333623 -27.34761388 -23.69870473 0 0 Z " fill="#A50134" transform="translate(193.625,37.75)"/>
<path d="M0 0 C4.26167377 3.41971928 8.14081353 7.14081353 12 11 C11.80860021 13.89433822 11.432964 15.50712193 9.50390625 17.703125 C8.86324219 18.21359375 8.22257812 18.7240625 7.5625 19.25 C6.85222656 19.83394531 6.14195312 20.41789062 5.41015625 21.01953125 C4.21712891 21.99986328 4.21712891 21.99986328 3 23 C1.15903072 24.63728757 -0.67430016 26.28320299 -2.5 27.9375 C-3.3559375 28.70964844 -4.211875 29.48179688 -5.09375 30.27734375 C-6.03734375 31.13005859 -6.03734375 31.13005859 -7 32 C-9.85760908 30.69543934 -11.96323951 29.26745037 -14.25 27.125 C-23.51310368 19.11261074 -34.13742199 17.58740131 -46.1875 18.125 C-52.36795032 18.70935848 -57.48884982 20.17298407 -63 23 C-64.0725 23.53625 -65.145 24.0725 -66.25 24.625 C-75.21495592 32.36746193 -78.0212183 44.24124399 -78.875 55.625 C-78.91625 56.40875 -78.9575 57.1925 -79 58 C-79.04125 58.680625 -79.0825 59.36125 -79.125 60.0625 C-79.52533571 73.27357831 -78.07674966 88.49623777 -68.69921875 98.53515625 C-60.86910989 105.2852501 -51.22944349 106.34494766 -41.3125 106.25 C-40.3416748 106.24613281 -39.37084961 106.24226563 -38.37060547 106.23828125 C-31.34705462 106.15375916 -24.87818011 105.48717408 -18 104 C-18 96.08 -18 88.16 -18 80 C-26.91 80 -35.82 80 -45 80 C-45 71.09 -45 62.18 -45 53 C-25.86 53 -6.72 53 13 53 C13.32087047 70.01950476 13.32087047 70.01950476 13.390625 77.28320312 C13.43842385 82.23710807 13.49491665 87.18982852 13.60351562 92.14282227 C13.69054271 96.1370316 13.738293 100.12997101 13.75901794 104.12505531 C13.77378295 105.64785067 13.80261892 107.17057758 13.84584045 108.69283104 C14.17103127 120.62214725 14.17103127 120.62214725 11.28236389 124.02099609 C9.20763576 125.35008131 7.32874948 126.21463982 5 127 C3.90558594 127.48726562 2.81117188 127.97453125 1.68359375 128.4765625 C-6.80970422 131.4814116 -15.112974 133.52911491 -24 135 C-24.763125 135.13277344 -25.52625 135.26554688 -26.3125 135.40234375 C-47.92194587 138.48337802 -71.89605261 135.69357231 -90 123 C-104.13524572 111.57562333 -109.9280816 94.50958934 -112 77 C-112.28450416 72.2251454 -112.33423435 67.4700009 -112.3125 62.6875 C-112.30758545 61.4094751 -112.3026709 60.1314502 -112.29760742 58.81469727 C-112.06274639 39.91862157 -107.72701973 22.01503106 -94.8203125 7.55859375 C-71.76383559 -14.7797306 -26.67530745 -17.44007941 0 0 Z " fill="#6A6B6A" transform="translate(491,54)"/>
<path d="M0 0 C10.89 0 21.78 0 33 0 C33 37.29 33 74.58 33 113 C55.44 113 77.88 113 101 113 C101 122.57 101 132.14 101 142 C67.67 142 34.34 142 0 142 C0 95.14 0 48.28 0 0 Z " fill="#6B6C6B" transform="translate(275,46)"/>
<path d="M0 0 C0 2.64 0 5.28 0 8 C-0.83640015 8.05160278 -0.83640015 8.05160278 -1.68969727 8.10424805 C-25.95191823 9.71176038 -45.83119658 16.45023201 -63 34 C-63.72703125 34.69480469 -64.4540625 35.38960937 -65.203125 36.10546875 C-78.1380699 49.26957606 -85.37930827 69.3285578 -85.5 87.625 C-85.43264749 90.4287516 -85.25076466 93.20697798 -85 96 C-84.938125 96.69303223 -84.87625 97.38606445 -84.8125 98.10009766 C-83.05876238 114.99156599 -76.13037695 130.21925682 -65 143 C-64.31421875 143.79664063 -63.6284375 144.59328125 -62.921875 145.4140625 C-49.57249569 159.80172687 -29.52078462 168.82808326 -10 170 C-8.97003906 170.07605469 -7.94007812 170.15210938 -6.87890625 170.23046875 C14.31108506 171.07441889 35.37064613 163.30100011 51 149 C52.02287109 148.11441406 52.02287109 148.11441406 53.06640625 147.2109375 C68.59199429 132.93104243 74.46210423 113.30316618 77 93 C58.85 93 40.7 93 22 93 C22 90.03 22 87.06 22 84 C43.12 84 64.24 84 86 84 C86 100.93084789 84.13947139 114.00711009 77 129 C76.37351563 130.34964844 76.37351563 130.34964844 75.734375 131.7265625 C65.23089867 152.67315035 45.84131242 167.25785262 23.96240234 174.69238281 C0.18281386 182.4905261 -23.92813635 180.22390885 -46.20410156 168.953125 C-68.35321851 157.19807435 -82.52553826 138.48945182 -90.8125 115.1875 C-93.26700362 106.91445225 -94.36613329 98.93749908 -94.3125 90.3125 C-94.30686035 89.35206787 -94.3012207 88.39163574 -94.29541016 87.40209961 C-93.88539797 63.14439839 -84.03791234 42.06780342 -67 25 C-66.32710937 24.31550781 -65.65421875 23.63101563 -64.9609375 22.92578125 C-47.27440791 6.06727271 -23.9956658 -0.84140646 0 0 Z " fill="#FBF4F6" transform="translate(122,28)"/>
<path d="M0 0 C2.64 0 5.28 0 8 0 C8 27.72 8 55.44 8 84 C15.26 84 22.52 84 30 84 C30 86.64 30 89.28 30 92 C20.1 92 10.2 92 0 92 C0 61.64 0 31.28 0 0 Z " fill="#FEFCFC" transform="translate(114,71)"/>
<path d="M0 0 C3.55392566 1.93782473 5.76262656 4.64393985 8 8 C8.47128944 12.79144265 8.51298393 15.0289947 6.25 19.3125 C1.77451721 24.65821556 1.77451721 24.65821556 -2.0078125 25.38671875 C-6.63777104 25.73985118 -9.38710876 25.18210263 -13 22.1875 C-16.27708105 19.11523652 -16.9108348 16.76427314 -17.4375 12.25 C-17.41253207 7.74744944 -15.51128348 5.53249625 -12.5078125 2.34765625 C-8.90028695 -0.87668654 -4.59681311 -0.70304201 0 0 Z " fill="#FDF9FA" transform="translate(89,71)"/>
</svg>
